<svg xmlns="http://www.w3.org/2000/svg" viewBox="0 0 320 46" width="320" height="46" role="presentation">
  <defs>
    <linearGradient id="gdiv" x1="0" y1="0" x2="1" y2="0">
      <stop offset="0" stop-color="#D9B97E"/>
      <stop offset="0.5" stop-color="#A87F3F"/>
      <stop offset="1" stop-color="#D9B97E"/>
    </linearGradient>
  </defs>
  <path d="M6 24 H120" stroke="url(#gdiv)" stroke-width="1.4" opacity="0.8"/>
  <path d="M200 24 H314" stroke="url(#gdiv)" stroke-width="1.4" opacity="0.8"/>
  <path d="M120 24 C126 12 138 8 148 12" stroke="url(#gdiv)" stroke-width="1.5" fill="none"/>
  <path d="M200 24 C206 36 218 40 228 36" stroke="url(#gdiv)" stroke-width="1.5" fill="none"/>
  <path d="M160 14 C152 4 138 10 140 24 C142 38 160 44 168 32 C172 26 168 20 160 14 Z" fill="#F2E4C8" stroke="#B08D57" stroke-width="1.6"/>
  <path d="M160 24 l8 0 M160 24 l-4 7 M160 24 l-4 -7 M160 24 l9 3 M160 24 l9 -3" stroke="#B08D57" stroke-width="1.3" stroke-linecap="round"/>
  <path d="M130 22 Q118 10 106 16 Q114 26 130 22 Z" fill="#A8B88A" opacity="0.85"/>
  <path d="M190 26 Q202 14 214 20 Q206 30 190 26 Z" fill="#A8B88A" opacity="0.85"/>
  <circle cx="160" cy="24" r="3.2" fill="#B94A38" opacity="0.8"/>
</svg>