<svg xmlns="http://www.w3.org/2000/svg" viewBox="0 0 140 140" width="140" height="140" role="presentation">
  <defs>
    <g id="hoja">
      <path d="M0 0 C 9 -11 28 -13 35 -3 C 28 6 10 8 0 0 Z" fill="#A9B895"/>
    </g>
    <g id="florcita">
      <circle cx="0" cy="-4.6" r="3.4" fill="#F3B7CB"/>
      <circle cx="4.4" cy="-1.5" r="3.4" fill="#F3B7CB"/>
      <circle cx="2.7" cy="3.7" r="3.4" fill="#F3B7CB"/>
      <circle cx="-2.7" cy="3.7" r="3.4" fill="#F3B7CB"/>
      <circle cx="-4.4" cy="-1.5" r="3.4" fill="#F3B7CB"/>
      <circle r="2.2" fill="#E8C66A"/>
    </g>
    <g id="brote">
      <path d="M0 0 C 3 -12 12 -15 12 -8 C 12 -2 6 0 0 0 Z" fill="#D97F9F"/>
      <path d="M1 1 C -1 -3 -7 -5 -9 -2 C -7 0 -1 -1 0 -1 Z" fill="#8C9C7E"/>
    </g>
    <g id="destello">
      <path d="M0 -9 C 2 -3 3 -2 9 0 C 3 2 2 3 0 9 C -2 3 -3 2 -9 0 C -3 -2 -2 -3 0 -9 Z" fill="#E9CD86"/>
    </g>
  </defs>

  <g transform="translate(70 70) scale(0.9)"><use href="#florcita"/></g>
  <g transform="translate(112 32) rotate(30) scale(0.8)"><use href="#hoja"/></g>
  <g transform="translate(28 108) rotate(-150) scale(0.8)"><use href="#hoja"/></g>
  <g transform="translate(28 32) rotate(-30) scale(0.8)"><use href="#hoja"/></g>
  <g transform="translate(112 108) rotate(150) scale(0.8)"><use href="#hoja"/></g>
  <g transform="translate(136 110) rotate(40) scale(0.8)"><use href="#brote"/></g>
  <g transform="translate(4 30) rotate(-40) scale(0.8)"><use href="#brote"/></g>
  <g transform="translate(96 128) scale(0.6)"><use href="#destello"/></g>
  <g transform="translate(44 12) scale(0.6)"><use href="#destello"/></g>
</svg>